<?xml version="1.0" standalone="no"?>
<!DOCTYPE svg PUBLIC "-//W3C//DTD SVG 20010904//EN"
 "http://www.w3.org/TR/2001/REC-SVG-20010904/DTD/svg10.dtd">
<svg version="1.0" xmlns="http://www.w3.org/2000/svg"
 width="256.000000pt" height="256.000000pt" viewBox="0 0 256.000000 256.000000"
 preserveAspectRatio="xMidYMid meet">

<g transform="translate(0.000000,256.000000) scale(0.100000,-0.100000)"
fill="#000000" stroke="none">
<path d="M1917 2401 c-33 -11 -83 -35 -112 -55 -37 -24 -245 -248 -688 -740
l-636 -705 -76 -218 c-43 -120 -106 -300 -141 -400 l-63 -182 52 20 c215 85
754 301 763 307 32 19 1274 1412 1306 1464 87 142 73 299 -36 416 -91 97 -242
135 -369 93z m233 -30 c121 -46 200 -157 200 -280 0 -72 -8 -111 -21 -111 -5
0 -117 81 -250 180 l-242 180 44 19 c68 29 70 29 146 30 49 1 89 -5 123 -18z
m-83 -227 c131 -97 242 -180 247 -185 8 -7 -10 -69 -20 -69 -4 0 -504 367
-518 381 -11 10 21 49 40 49 8 0 120 -79 251 -176z m-235 31 c-14 -22 -1224
-1345 -1231 -1345 -3 1 -24 16 -46 35 l-40 34 21 23 c12 13 265 295 564 628
299 333 565 628 593 657 l50 51 48 -36 c29 -21 45 -40 41 -47z m166 -106 c77
-57 119 -95 115 -102 -4 -7 -283 -321 -621 -700 l-613 -687 -27 19 c-15 11
-40 33 -55 49 l-29 30 129 143 c755 843 1101 1238 1090 1247 -9 7 -180 -180
-612 -665 -330 -371 -608 -681 -617 -690 -17 -15 -22 -12 -70 33 -29 27 -54
52 -56 56 -4 8 1226 1358 1236 1358 4 0 62 -41 130 -91z m217 -160 c30 -23 55
-45 55 -49 0 -8 -1247 -1394 -1258 -1397 -4 -1 -31 19 -61 45 l-53 48 621 697
c342 383 627 697 632 697 5 0 34 -19 64 -41z m-1477 -1253 c128 -113 233 -208
233 -212 0 -4 -92 -44 -204 -89 l-205 -82 -7 104 c-7 100 -8 104 -29 99 -11
-3 -58 -17 -104 -30 -73 -21 -83 -22 -77 -7 4 9 38 107 77 219 39 111 74 202
77 202 3 0 111 -92 239 -204z m-210 -307 l-3 -91 -134 -54 c-74 -29 -137 -52
-139 -49 -3 2 14 58 37 123 l42 118 77 21 c129 35 123 38 120 -68z"/>
</g>
</svg>
