<?xml version="1.0" standalone="no"?>
<!DOCTYPE svg PUBLIC "-//W3C//DTD SVG 20010904//EN"
 "http://www.w3.org/TR/2001/REC-SVG-20010904/DTD/svg10.dtd">
<svg version="1.0" xmlns="http://www.w3.org/2000/svg"
 width="512.000000pt" height="512.000000pt" viewBox="0 0 512.000000 512.000000"
 preserveAspectRatio="xMidYMid meet">

<g transform="translate(0.000000,512.000000) scale(0.100000,-0.100000)"
fill="#000000" stroke="none">
<path d="M2665 4448 c-16 -6 -55 -28 -86 -49 -45 -30 -58 -45 -62 -71 -7 -41
-27 -360 -30 -487 l-2 -95 -865 -499 c-476 -274 -877 -504 -892 -510 l-28 -11
0 -818 0 -818 1970 0 1970 0 0 819 0 820 -24 3 c-13 2 -411 219 -886 483
l-862 480 7 267 c5 231 4 271 -9 297 -9 16 -16 40 -16 53 0 15 -23 43 -67 85
-73 67 -72 67 -118 51z m89 -68 c42 -16 66 -47 66 -85 0 -59 -52 -95 -135 -95
-82 0 -135 36 -135 93 0 39 14 61 55 82 34 17 111 20 149 5z m-135 -199 c69
-23 145 -8 193 37 15 14 31 22 35 19 4 -4 1 -247 -6 -540 -15 -645 -21 -1130
-15 -1099 3 12 20 118 38 234 26 165 31 221 24 253 -16 66 -4 222 21 287 20
52 25 58 68 72 106 36 191 11 235 -70 l22 -41 -37 -434 c-20 -238 -34 -435
-33 -436 2 -2 25 104 51 234 34 166 51 276 55 363 4 69 14 143 21 165 14 39
16 41 97 63 l83 24 34 -39 c55 -63 65 -142 64 -493 -1 -162 -4 -337 -8 -389
l-6 -93 -470 -174 c-393 -145 -477 -173 -515 -170 -39 2 -449 164 -839 330
l-74 31 -38 135 c-20 74 -58 196 -83 270 -36 107 -46 149 -45 200 0 61 2 68
38 109 l38 43 92 -12 91 -13 142 -276 c78 -152 150 -289 160 -306 l19 -30 -5
35 c-3 19 -15 134 -27 255 -22 217 -22 222 -4 365 9 80 28 180 42 222 22 72
27 80 68 104 39 23 52 25 97 19 29 -4 72 -19 95 -33 38 -24 43 -32 64 -110 28
-106 31 -202 6 -230 -13 -14 -16 -27 -11 -48 9 -36 83 -216 93 -227 5 -4 11
153 15 350 14 683 23 1098 25 1102 0 3 13 -7 29 -21 15 -14 42 -30 61 -37z
m-138 -843 c-7 -205 -13 -389 -14 -408 -2 -32 -4 -29 -26 33 -22 63 -22 69 -7
86 24 26 20 156 -8 256 -20 73 -26 82 -68 113 -31 22 -66 36 -107 43 -57 10
-63 9 -111 -17 -63 -34 -63 -34 -89 -121 -49 -165 -68 -400 -44 -540 5 -33 5
-33 -36 -33 l-41 0 -80 159 c-88 178 -69 161 -211 181 l-77 11 -51 -53 -52
-53 6 -87 c3 -48 11 -101 16 -118 6 -17 9 -33 7 -36 -3 -2 -151 -1 -330 4
l-325 7 826 476 c454 262 828 475 830 473 2 -2 -2 -171 -8 -376z m691 160
l291 -162 -64 -16 c-102 -26 -121 -39 -136 -90 -12 -44 -12 -43 -7 31 5 65 2
83 -15 117 -49 96 -146 132 -262 97 -67 -21 -66 -19 -96 -95 l-22 -55 0 61
c-1 77 11 274 16 274 3 0 135 -73 295 -162z m848 -473 c256 -142 469 -262 475
-267 5 -4 -194 -8 -443 -8 l-452 0 0 160 c0 195 -24 326 -68 374 l-27 30 25
-15 c14 -9 234 -132 490 -274z m-1159 -22 l-9 -48 -1 65 c0 48 2 60 10 48 6
-11 6 -34 0 -65z m376 -40 c-2 -16 -4 -5 -4 22 0 28 2 40 4 28 2 -13 2 -35 0
-50z m-1684 -380 c49 -159 71 -243 66 -248 -5 -4 -878 350 -887 360 -3 3 172
5 390 5 l395 0 36 -117z m469 52 c3 -33 5 -61 4 -62 -1 -1 -17 27 -34 63 l-32
65 27 -3 c26 -3 28 -7 35 -63z m2577 53 c-9 -6 -238 -93 -510 -193 l-494 -182
-3 61 c-2 34 -1 121 3 194 l7 132 507 -1 c366 0 502 -3 490 -11z m-2956 -398
l866 -355 -64 -32 c-96 -49 -525 -243 -1141 -515 l-551 -244 -7 125 c-3 69 -6
410 -6 758 0 608 1 632 18 625 10 -4 408 -167 885 -362z m2947 -385 l0 -745
-22 9 c-366 140 -1901 751 -1910 759 -6 6 1891 716 1925 721 4 1 7 -334 7
-744z m-1068 -357 c522 -210 943 -385 936 -389 -14 -7 -3557 -34 -3564 -26 -4
3 1662 796 1676 797 2 0 431 -172 952 -382z m-2612 -373 c-14 -8 -29 -14 -35
-14 -5 0 1 6 15 14 14 8 30 14 35 14 6 0 -1 -6 -15 -14z m-90 -40 c-14 -8 -29
-14 -35 -14 -5 0 1 6 15 14 14 8 30 14 35 14 6 0 -1 -6 -15 -14z m3673 -12
c-62 -2 -164 -2 -225 0 -62 1 -12 3 112 3 124 0 174 -2 113 -3z"/>
<path d="M2555 3490 c-14 -6 0 -8 45 -8 50 0 58 2 35 8 -40 10 -56 10 -80 0z"/>
<path d="M2555 3450 c-7 -11 18 -14 80 -10 70 4 64 20 -7 20 -37 0 -70 -4 -73
-10z"/>
<path d="M2188 3403 c7 -3 16 -2 19 1 4 3 -2 6 -13 5 -11 0 -14 -3 -6 -6z"/>
<path d="M3108 3393 c6 -2 18 -2 25 0 6 3 1 5 -13 5 -14 0 -19 -2 -12 -5z"/>
<path d="M2552 3378 c7 -4 40 -7 73 -7 73 1 62 6 -23 11 -34 3 -57 1 -50 -4z"/>
<path d="M3418 3273 c12 -2 30 -2 40 0 9 3 -1 5 -23 4 -22 0 -30 -2 -17 -4z"/>
<path d="M1573 3023 c9 -2 23 -2 30 0 6 3 -1 5 -18 5 -16 0 -22 -2 -12 -5z"/>
<path d="M1553 2993 c9 -2 25 -2 35 0 9 3 1 5 -18 5 -19 0 -27 -2 -17 -5z"/>
</g>
</svg>
